<svg width="32" height="32" viewBox="0 0 32 32" fill="none" xmlns="http://www.w3.org/2000/svg">
<path d="M17.9999 8.66666L23.3333 14M21.3333 25.3333H29.3333M5.33325 26.6667H10.6666L24.6666 12.6667C25.0168 12.3165 25.2946 11.9007 25.4841 11.4432C25.6736 10.9856 25.7712 10.4952 25.7712 10C25.7712 9.50475 25.6736 9.01435 25.4841 8.55681C25.2946 8.09926 25.0168 7.68352 24.6666 7.33333C24.3164 6.98314 23.9007 6.70535 23.4431 6.51583C22.9856 6.32631 22.4952 6.22876 21.9999 6.22876C21.5047 6.22876 21.0143 6.32631 20.5567 6.51583C20.0992 6.70535 19.6834 6.98314 19.3333 7.33333L5.33325 21.3333V26.6667Z" stroke="#47B2B2" stroke-width="2.66667" stroke-linecap="round" stroke-linejoin="round"/>
</svg>
