<svg width="24" height="24" viewBox="0 0 24 24" fill="none" xmlns="http://www.w3.org/2000/svg">
<g id="tabler:world-cog">
<g id="Group">
<path id="Vector" d="M21 12C21 10.2191 20.4716 8.47817 19.4818 6.99767C18.4919 5.51718 17.085 4.36364 15.4393 3.68307C13.7935 3.00251 11.9829 2.82551 10.2365 3.17448C8.49005 3.52345 6.88645 4.38271 5.62861 5.64348C4.37078 6.90426 3.51528 8.50986 3.17038 10.2571C2.82549 12.0043 3.00672 13.8145 3.69113 15.4587C4.37554 17.1029 5.53236 18.507 7.01516 19.4934C8.49797 20.4798 10.2401 21.0041 12.021 21M3.6 8.99998H20.4M3.6 15H12.5" stroke="#47B2B2" stroke-width="2" stroke-linecap="round" stroke-linejoin="round"/>
<path id="Vector_2" d="M11.4999 3C9.81525 5.69961 8.92212 8.81787 8.92212 12C8.92212 15.1821 9.81525 18.3004 11.4999 21M12.4999 3C14.4332 6.09802 15.3175 9.73623 15.0219 13.376M19.0009 21C18.4705 21 17.9618 20.7893 17.5867 20.4142C17.2116 20.0391 17.0009 19.5304 17.0009 19C17.0009 18.4696 17.2116 17.9609 17.5867 17.5858C17.9618 17.2107 18.4705 17 19.0009 17M19.0009 21C19.5313 21 20.0401 20.7893 20.4151 20.4142C20.7902 20.0391 21.0009 19.5304 21.0009 19C21.0009 18.4696 20.7902 17.9609 20.4151 17.5858C20.0401 17.2107 19.5313 17 19.0009 17M19.0009 21V22.5M19.0009 17V15.5M22.0319 17.25L20.7329 18M17.2699 20L15.9699 20.75M15.9699 17.25L17.2699 18M20.7329 20L22.0329 20.75" stroke="#47B2B2" stroke-width="2" stroke-linecap="round" stroke-linejoin="round"/>
</g>
</g>
</svg>
